<?xml version="1.0" encoding="UTF-8"?>
<!DOCTYPE svg  PUBLIC '-//W3C//DTD SVG 1.1//EN'  'http://www.w3.org/Graphics/SVG/1.1/DTD/svg11.dtd'>
<svg enable-background="new 0 0 2372.7288 1655.9087" version="1.1" viewBox="0 0 2372.7288 1655.9087" xml:space="preserve" xmlns="http://www.w3.org/2000/svg">
	<path d="m1112.1 42.722c19.396-3e-4 39.582 1.8933 59.952 5.5118 142.28 25.275 237.28 112.21 233.63 223.78-8.1163 77.528-50.455 138.02-106.4 181.75-29.461 23.03-65.864 41.262-99.584 67.778 9.509-58.52-21.13-91.058-62.477-120.79-141.52-101.76-203.71-208.27-173.04-281.71 22.247-53.267 80.257-76.318 147.93-76.319m0.0029-14.767v14.767l-0.0011-14.767h-0.0021c-37.615 6e-4 -70.39 6.6124-97.414 19.652-30.483 14.709-52.062 36.828-64.139 65.743-17.098 40.939-9.1634 90.588 22.946 143.58 31.11 51.342 84.743 105.22 155.1 155.81 40.804 29.341 64.492 57.38 56.522 106.43l-5.123 31.528c-0.3386 2.0842 2.0594 3.4982 3.7194 2.1929l25.108-19.744c16.962-13.338 34.906-24.683 52.26-35.655 16.76-10.596 32.59-20.604 47.291-32.097 30.891-24.148 55.999-51.774 74.625-82.11 20.701-33.715 33.273-70.636 37.367-109.74l0.0551-0.5259 0.0172-0.5283c0.9692-29.593-4.4769-58.154-16.188-84.888-11.32-25.841-28.315-49.586-50.515-70.576-43.898-41.505-105.83-70.324-179.1-83.34-21.438-3.8083-42.477-5.7394-62.532-5.7394z" fill="#FF6CCD"/>
			<path d="m1658.6 1614.6c-0.2542 0.7737-0.5695 1.728 0.0916-0.2894 0.16-0.4823 0.1378-0.4116 0.0522-0.1495 2.542-7.6168 5.9072-14.878 9.6687-21.952l7.2759-209.76 16.65 0.5775-7.3278 211.25c1.4697 3.2074 3.2289 9.8257 3.796 11.524 2.1919 6.6775 3.032 14.219 0.9471 21.035-4.9348-3.6569-8.4449-9.0801-10.715-14.72-1.1993 4.7844-2.4863 9.7084-4.6108 14.189-1.8883-6.0204-2.485-12.516-2.9467-18.773-4.5413 6.2532-9.5973 12.416-15.57 17.373 0.6049-3.507 1.5885-6.9291 2.6882-10.309z"/>
			<path d="m1556.9 1597.4c-0.2555 0.8174-0.5726 1.8257 0.0922-0.3058 0.1611-0.5095 0.1387-0.4348 0.0526-0.1578 2.557-8.0472 5.9364-15.721 9.7119-23.197l7.6827-221.49 16.65 0.5775-7.7377 223.07c1.4637 3.3838 3.2102 10.368 3.774 12.16 2.1791 7.0461 3.0048 15.008 0.9065 22.208-4.928-3.8514-8.428-9.5708-10.687-15.522-1.2087 5.0541-2.5054 10.256-4.6387 14.99-1.8767-6.3529-2.4609-13.21-2.9105-19.816-4.5536 6.6113-9.6219 13.128-15.604 18.374 0.6116-3.704 1.602-7.3192 2.7083-10.89z"/>
		<path d="m2222.8 756.17c-0.4226-3.0865-4.561-3.8064-6.0005-1.0435-34.425 66.078-85.117 98.937-147.29 108.36-59.747 6.6697-103.97-51.169-155.64-122.47-129.92-179.3-295.06-266.12-409.31-215-150.09 67.159-211.98 225.21-208.92 397.77 3.5217 198.84 111.04 375.91 284.02 435.33 205.25 70.506 429.43 47.96 539.32-114.28 104.48-154.26 126.51-322.85 103.81-488.67z" fill="#D7ACE0"/>
		<path d="m2004.9 988.47c-1.1285-1.8211 0.1964-4.1573 2.3387-4.1362 51.605 0.5085 71.481-28.257 45.335-76.25-42.222-77.5-175.35-102.79-227.01-78.275-3.2189 1.5272-5.8213 4.123-7.3876 7.323-29.25 59.756 18.327 285.67 101.61 311.01 53.298 16.212 69.428-22.554 41.462-69.847-1.067-1.8046 0.2097-4.0778 2.3062-4.098 68.34-0.6629 73.669-33.561 41.346-85.722z" fill="#fff"/>
		<path d="m1362.7 703.3l-102.82-8.5643c-1.839-0.1532-2.8521 2.0874-1.5223 3.3669l74.582 71.768c0.9789 0.942 2.5958 0.6272 3.1499-0.6131l28.234-63.204c0.551-1.2336-0.2813-2.6417-1.6276-2.7538z" fill="#FEC417"/>
		<path d="m2224.5 719.4c9.8987-23.998 39.759-32.972 76.072-46.805 40.978-15.609 40.525-44.127 11.343-73.061-16.482-16.342-31.464-11.776-57.318 5.8261 8.0122-47.915-23.42-70.289-54.217-58.996-30.521 11.192-29.989 57.638-16.097 87.246 10.717 22.842 26.753 52.153 40.216 85.79z" fill="#F784AF"/>
		<path d="m1483.3 720.14c-14.728 8.0286-29.947 16.297-39.799 30.414-4.2019 6.0215-7.3149 12.719-8.9442 19.897-2.149 9.4673-2.1151 19.223-0.8295 28.813 0.4972 3.7091 1.2369 7.3719 1.9725 11.039-0.1012-0.3432-0.2024-0.6865-0.3037-1.0297 4.5763 11.995 10.695 24.692 23.08 30.179 6.631 3.1307 14.837 2.7627 21.88 1.4757 9.7064-1.7736 18.918-5.5246 27.894-9.5117 3.254-1.4454 6.4384-3.0456 9.696-4.4802-6.959 7.2292-14.795 13.518-23.433 18.626-6.7206 3.9747-14.527 7.3168-22.331 8.2808-7.6877 0.9495-15.042 0.3333-22.271-2.5541-5.7866-2.3113-11.298-6.3502-15.402-11.065-7.4037-8.5037-13.343-18.915-15.728-29.987-4.0476-18.789-2.8677-39.854 7.1479-56.637 12.023-20.146 34.683-30.848 57.372-33.462-1.1312 0.6166-2.5658 0.2956 0 0z"/>
			<ellipse transform="matrix(.943 -.3328 .3328 .943 -214.23 515.95)" cx="1399.2" cy="883.43" rx="31.005" ry="53.536" fill="#fff"/>
				<path d="m1815.3 608.06c-26.969 0-91.765-16.51-165.07-42.062-77.249-26.924-141.81-55.916-172.69-77.553-1.0645-0.7456-1.6963-1.9639-1.6943-3.2632 2e-3 -1.2988 0.6387-2.5151 1.7051-3.2568 2.0439-1.4219 5.1973-2.084 9.9238-2.084 21.284 0 71.455 13.228 103.17 25.1 1.7559 0.6572 2.8145 2.4517 2.5391 4.3062l-1.041 7.0258 124.43 45.766 1.6973-8.0044c0.251-1.1812 1.0244-2.1846 2.1035-2.7271 0.5615-0.2822 1.1738-0.4238 1.7861-0.4238 0.5654 0 1.1309 0.1206 1.6582 0.3623 35.286 16.188 74.034 34.748 93.878 49.66 1.3672 1.0273 1.9238 2.8149 1.3828 4.4375-0.542 1.6226-2.0605 2.7163-3.7714 2.7163z" fill="#692CBD"/>
				<path d="m1487.5 483.82c19.832-9e-4 69.269 12.68 101.78 24.848l-1.5145 10.224 131.77 48.467 2.6506-12.495c39.58 18.158 74.772 35.416 93.148 49.224-56.419-1e-4 -268.46-71.943-335.48-118.9 1.3539-0.9417 4.0033-1.3716 7.6537-1.3717m2e-3 -7.9517v7.9516l-6e-4 -7.9516h-0.0018c-5.6543 3e-4 -9.4152 0.8626-12.194 2.796-2.1328 1.4838-3.4063 3.9161-3.4106 6.5144-0.0042 2.5983 1.2612 5.0348 3.3893 6.5256 31.167 21.835 96.088 51.012 173.66 78.051 58.647 20.441 133.15 42.284 166.38 42.284 3.4213 0 6.4589-2.1884 7.5424-5.4336 1.0834-3.2452-0.0304-6.8196-2.7655-8.8749-20.146-15.14-59.131-33.819-94.609-50.095-1.0535-0.4833-2.1852-0.7242-3.3156-0.7242-1.2253-1e-4 -2.4492 0.283-3.5717 0.8472-2.158 1.0848-3.7058 3.0916-4.2069 5.4543l-0.7452 3.5128-117.08-43.065 0.567-3.8275c0.5496-3.7089-1.5665-7.2977-5.078-8.6122-32.034-11.992-82.854-25.353-104.56-25.353z" fill="#D28AFF"/>
				<path d="m1712.3 553.92c-0.4639 0-0.9365-0.0815-1.3965-0.2544l-110.94-41.651c-1.708-0.6416-2.7607-2.3637-2.5527-4.1767l39.38-342.3c0.1416-1.2256 0.8438-2.3164 1.9014-2.9526 0.626-0.377 1.3359-0.5684 2.0488-0.5684 0.4902 0 0.9824 0.0903 1.4502 0.2739l192.35 75.351c2.0439 0.8003 3.0527 3.1064 2.252 5.1509l-120.79 308.6c-0.6134 1.567-2.1124 2.5274-3.7032 2.5274z" fill="#692CBD"/>
				<path d="m1640.8 165.99l192.35 75.351-120.79 308.6-110.94-41.651 39.379-342.3m4e-4 -7.9516c-1.4264 0-2.845 0.3835-4.0984 1.1373-2.115 1.2719-3.5194 3.4537-3.8015 5.9055l-39.379 342.3c-0.4171 3.6259 1.6877 7.0703 5.1047 8.3531l110.94 41.651c0.92 0.3454 1.8647 0.5093 2.7935 0.5093 3.1805 0 6.1793-1.9213 7.406-5.0554l120.79-308.6c1.6003-4.0887-0.416-8.7006-4.5042-10.302l-192.35-75.351c-0.9359-0.3665-1.9198-0.5477-2.8999-0.5477z" fill="#D28AFF"/>
	<path d="m1194 227.33c-5.2064-65.79 35.404-96.461 77.434-77.434 47.864 21.668 43.201 88.512 5.8689 144.45-14.388 21.561-30.72 54.144-44.68 92.39-10.631-29.871-41.112-48.514-82.546-60.962-52.747-14.744-75.162-43.261-53.768-84.06 20.758-39.588 62.141-42.309 97.691-14.389z" fill="#F784AF"/>
				<path d="m679.9 1616.8c0.2271 0.7821 0.5091 1.7468-0.0815-0.2924-0.1433-0.4875-0.1235-0.4161-0.0471-0.1511-2.2765-7.7004-5.3879-15.074-8.9019-22.274v-209.88h-16.66v211.38c-1.5801 3.1547-3.5676 9.7079-4.1932 11.385-2.4221 6.5974-3.5232 14.106-1.6758 20.989 5.0586-3.4835 8.7547-8.7819 11.219-14.34 1.0328 4.8231 2.1483 9.7887 4.1162 14.34 2.0959-5.9513 2.9174-12.422 3.5957-18.66 4.3217 6.4069 9.1611 12.741 14.958 17.902-0.4828-3.5259-1.3472-6.9801-2.3291-10.396z"/>
				<path d="m782.14 1603.1c0.2271 0.8257 0.5091 1.8445-0.0815-0.3088-0.1433-0.5148-0.1235-0.4393-0.0471-0.1595-2.2765-8.1311-5.3879-15.917-8.9019-23.52v-221.62h-16.66v223.2c-1.5801 3.3309-3.5676 10.251-4.1932 12.022-2.4221 6.9664-3.5232 14.894-1.6758 22.163 5.0586-3.6783 8.7547-9.2729 11.219-15.142 1.0328 5.0929 2.1483 10.336 4.1162 15.142 2.0958-6.2841 2.9174-13.117 3.5957-19.703 4.3217 6.7651 9.1611 13.453 14.958 18.903-0.4828-3.7233-1.3472-7.3708-2.3291-10.977z"/>
			<path d="m145.78 739.35c0.5292-3.0701 4.6901-3.646 6.0328-0.8349 32.114 67.232 81.636 101.83 143.44 113.4 59.48 8.737 105.68-47.534 159.79-117 136.06-174.69 304.11-255.73 416.51-200.68 147.67 72.322 204.04 232.43 195 404.78-10.413 198.6-124.01 371.83-298.94 425.22-207.57 63.348-430.84 33.044-535.03-132.91-99.07-157.79-115.24-327.04-86.807-491.97z" fill="#FBC2E2"/>
			<path d="m355.54 979.06c1.191-1.7809-0.0522-4.1616-2.194-4.2148-51.592-1.2808-70.458-30.718-42.664-77.776 44.883-75.99 178.81-96.646 229.59-70.358 3.1639 1.6378 5.6748 4.3224 7.1292 7.5746 27.161 60.734-28.219 284.87-112.33 307.3-53.828 14.354-68.605-24.947-39.016-71.243 1.129-1.7665-0.0682-4.0825-2.1626-4.1755-68.276-3.0314-72.461-36.095-38.35-87.103z" fill="#F784AF"/>
			<path d="m913.96 844.02c1.0294-2.9458 1.8019-5.9786 2.3561-9.0486 0.184-1.0189-0.0247-4.667 1.1832-4.6105 2.6342 0.1231 5.2682 0.2462 7.9024 0.3693 5.2756 0.2465 10.551 0.493 15.827 0.7396-4.7933-1.1866-9.5867-2.3731-14.38-3.5597-2.7465-0.6798-5.4929-1.3597-8.2393-2.0396-0.2432-0.0602-1.0555-0.1137-1.2364-0.306 0.1724-3.6387 0.0359-7.2869-0.3153-10.912-0.3135-3.2349-0.8116-6.452-1.4953-9.6293-0.1814-0.8433-1.6283-4.5355-0.9023-5.0889 1.9193-1.463 3.8385-2.926 5.7578-4.389 4.1602-3.1712 8.3204-6.3424 12.48-9.5135-6.6356 3.1548-13.271 6.3097-19.907 9.4646-2.1509-6.5725-4.988-12.919-8.4048-18.93-1.6758-2.9481-3.4876-5.8185-5.4163-8.6075-0.604-0.8747-3.8433-4.2385-3.1245-4.9875 3.8276-3.9882 7.6552-7.9763 11.483-11.964-4.9238 2.816-9.8475 5.632-14.771 8.4479-0.2753 0.1575-5.8484-6.2862-6.488-6.929-2.6534-2.6667-5.4594-5.1752-8.339-7.5944-4.7365-3.9792-9.8741-7.4163-15.177-10.585 24.423 23.105 46.04 53.732 45.615 88.818-0.1955 17.248-7.1849 34.371-22.63 43.259-14.412 8.2933-31.377 8.0773-47.408 6.5085 9.262 3.0209 18.816 4.9694 28.605 4.6627 2.6066-0.0817 5.2097-0.3289 7.7848-0.7416 0.7487-0.1199 5.2173-1.4423 5.5543-1.0438 0.9988 1.1815 1.9975 2.363 2.9963 3.5445 6.1925 7.3256 12.385 14.651 18.578 21.977-5.3926-9.1304-10.785-18.261-16.178-27.391 3.6512-1.4142 7.1251-3.2603 10.325-5.5189 0.8544-0.6031 7.3796-6.478 7.5125-6.3933 2.4859 1.5852 4.9718 3.1703 7.4577 4.7556 5.9855 3.8168 11.971 7.6335 17.956 11.45-4.722-4.2901-9.4441-8.5802-14.166-12.87-2.4434-2.2198-4.8868-4.4398-7.3301-6.6596-1.4091-1.2802 0.1329-1.941 1.1156-3.4774 2.2404-3.5033 4.0559-7.2777 5.4182-11.206 1.5434-4.4171-1.7456 5.0333 0 0z"/>
			<path d="m1007.2 716.32l103.05-4.9949c1.8431-0.0894 2.778 2.185 1.4047 3.4177l-77.026 69.139c-1.011 0.9074-2.616 0.5368-3.1267-0.722l-26.026-64.144c-0.5081-1.2519 0.3725-2.6303 1.7219-2.6957z" fill="#FEC417"/>
			<path d="m145.4 702.54c-9.0608-24.327-38.592-34.331-74.404-49.414-40.412-17.02-38.971-45.506-8.8036-73.41 17.039-15.761 31.853-10.678 57.081 7.8096-6.3463-48.164 25.843-69.435 56.229-57.081 30.115 12.243 27.973 58.643 13.063 87.752-11.502 22.457-28.545 51.194-43.166 84.344z" fill="#F784AF"/>
				<ellipse transform="matrix(.9986 .0533 -.0533 .9986 49.171 -50.279)" cx="966.98" cy="896.49" rx="31.005" ry="53.536" fill="#fff"/>
							<path d="m690.75 732.6c-16.313 0-29.585-20.322-29.585-45.301s13.272-45.301 29.585-45.301 29.584 20.322 29.584 45.301-13.272 45.301-29.584 45.301z" fill="#FFE363"/>
							<path d="m690.75 643.85c15.318 0 27.735 19.454 27.735 43.452s-12.418 43.452-27.735 43.452-27.735-19.454-27.735-43.452 12.418-43.452 27.735-43.452m0-3.6981c-8.7153 0-16.787 5.1265-22.729 14.435-5.6131 8.7939-8.7044 20.412-8.7044 32.715s3.0913 23.921 8.7044 32.715c5.9417 9.3087 14.014 14.435 22.729 14.435s16.787-5.1265 22.729-14.435c5.6131-8.7939 8.7044-20.412 8.7044-32.715s-3.0913-23.921-8.7044-32.715c-5.9417-9.3087-14.014-14.435-22.729-14.435z" fill="#EC869A"/>
							<path d="m647.3 673.43c-24.979 0-45.301-13.272-45.301-29.584s20.322-29.584 45.301-29.584 45.301 13.272 45.301 29.584-20.322 29.584-45.301 29.584z" fill="#FFE363"/>
							<path d="m647.3 616.11c23.998 0 43.452 12.418 43.452 27.735 0 15.318-19.454 27.735-43.452 27.735-23.998 0-43.452-12.418-43.452-27.735-1e-4 -15.318 19.454-27.735 43.452-27.735m0-3.6981c-12.303 0-23.921 3.0912-32.715 8.7044-9.3087 5.9417-14.435 14.014-14.435 22.729s5.1265 16.787 14.435 22.729c8.7939 5.6131 20.412 8.7043 32.715 8.7043s23.921-3.0912 32.715-8.7043c9.3087-5.9418 14.435-14.014 14.435-22.729s-5.1265-16.787-14.435-22.729c-8.794-5.6132-20.412-8.7044-32.715-8.7044z" fill="#EC869A"/>
							<path d="m690.75 645.7c-16.313 0-29.585-20.322-29.585-45.301s13.272-45.301 29.585-45.301 29.584 20.322 29.584 45.301-13.272 45.301-29.584 45.301z" fill="#FFE363"/>
							<path d="m690.75 556.94c15.318 0 27.735 19.454 27.735 43.452 0 23.998-12.418 43.452-27.735 43.452s-27.735-19.454-27.735-43.452 12.418-43.452 27.735-43.452m0-3.698c-8.7153 0-16.787 5.1265-22.729 14.435-5.6131 8.7939-8.7044 20.412-8.7044 32.715s3.0913 23.921 8.7044 32.715c5.9417 9.3087 14.014 14.435 22.729 14.435s16.787-5.1265 22.729-14.435c5.6131-8.7939 8.7044-20.412 8.7044-32.715s-3.0913-23.921-8.7044-32.715c-5.9417-9.3087-14.014-14.435-22.729-14.435z" fill="#EC869A"/>
							<path d="m734.2 673.43c-24.979 0-45.301-13.272-45.301-29.584s20.322-29.584 45.301-29.584 45.301 13.272 45.301 29.584-20.322 29.584-45.301 29.584z" fill="#FFE363"/>
							<path d="m734.2 616.11c23.998 0 43.452 12.418 43.452 27.735 0 15.318-19.454 27.735-43.452 27.735s-43.452-12.418-43.452-27.735 19.454-27.735 43.452-27.735m0-3.6981c-12.303 0-23.921 3.0912-32.715 8.7044-9.3087 5.9417-14.435 14.014-14.435 22.729s5.1265 16.787 14.435 22.729c8.7939 5.6131 20.412 8.7043 32.715 8.7043s23.921-3.0912 32.715-8.7043c9.3087-5.9417 14.435-14.014 14.435-22.729s-5.1265-16.787-14.435-22.729c-8.7938-5.6132-20.412-8.7044-32.715-8.7044z" fill="#EC869A"/>
					<path d="m690.75 675.9c-17.672 0-32.05-14.377-32.05-32.05s14.378-32.05 32.05-32.05 32.05 14.377 32.05 32.05-14.377 32.05-32.05 32.05z" fill="#FFE363"/>
					<path d="m690.75 613.65c16.679 0 30.201 13.521 30.201 30.201s-13.521 30.201-30.201 30.201-30.201-13.521-30.201-30.201c0-16.68 13.521-30.201 30.201-30.201m0-3.6981c-18.692 0-33.899 15.207-33.899 33.899 0 18.692 15.207 33.899 33.899 33.899s33.899-15.207 33.899-33.899c0-18.692-15.207-33.899-33.899-33.899z" fill="#EC869A"/>
							<path d="m725.38 695.69c-8.8955 0-19.088-4.8813-27.264-13.058-6.3491-6.3486-10.745-13.918-12.377-21.314-1.6826-7.6201-0.251-14.174 4.0308-18.456 3.0815-3.0815 7.4063-4.7104 12.507-4.7104 8.8955 0 19.087 4.8809 27.264 13.057 13.266 13.266 17.011 31.107 8.3472 39.771-3.0815 3.0815-7.4063 4.7104-12.506 4.7104-6e-4 1e-4 -6e-4 1e-4 -0.0011 1e-4z" fill="#FFE363"/>
							<path d="m702.27 639.54c8.1959 0 18.1 4.4696 26.282 12.651 12.745 12.745 16.482 29.672 8.347 37.807-2.9131 2.9131-6.9531 4.3038-11.525 4.3038-8.1958 0-18.1-4.4697-26.282-12.651-12.745-12.745-16.482-29.672-8.347-37.807 2.9131-2.9132 6.9531-4.3038 11.525-4.3038m0-2.7775c-5.4769 0-10.141 1.7695-13.489 5.1173-4.6287 4.6286-6.1929 11.638-4.4048 19.738 1.6893 7.6514 6.218 15.464 12.752 21.997 8.4309 8.4309 18.99 13.464 28.246 13.464 5.477 0 10.142-1.7695 13.489-5.1173 4.6286-4.6286 6.1929-11.638 4.4048-19.738-1.6893-7.6514-6.218-15.464-12.752-21.997-8.431-8.431-18.99-13.464-28.246-13.464z" fill="#EC869A"/>
							<path d="m656.12 695.69c-5.1006 0-9.4258-1.6289-12.507-4.7104-8.6636-8.6641-4.9189-26.505 8.3472-39.771 8.1763-8.1763 18.368-13.057 27.264-13.057 5.1006 0 9.4258 1.6289 12.507 4.7104 8.6636 8.6641 4.9189 26.505-8.3472 39.77-8.1758 8.1763-18.368 13.058-27.262 13.058h-2e-3z" fill="#FFE363"/>
							<path d="m679.22 639.54c4.5712 0 8.6125 1.3911 11.525 4.3038 8.1351 8.1351 4.3981 25.062-8.347 37.807-8.1819 8.1819-18.085 12.651-26.282 12.651-4.5712 0-8.6125-1.3911-11.525-4.3038-8.1351-8.1351-4.3981-25.062 8.347-37.807 8.1819-8.182 18.085-12.651 26.282-12.651m0-2.7775c-9.2557 0-19.815 5.0334-28.246 13.464-6.5338 6.5338-11.062 14.346-12.752 21.997-1.7881 8.0994-0.2238 15.109 4.4048 19.738 3.3477 3.3478 8.0123 5.1173 13.489 5.1173 9.2557 0 19.815-5.0334 28.246-13.464 6.5338-6.5338 11.062-14.346 12.752-21.997 1.7881-8.0993 0.2239-15.109-4.4048-19.738-3.3477-3.3477-8.0122-5.1172-13.489-5.1172z" fill="#EC869A"/>
							<path d="m679.22 649.54c-8.8955 0-19.088-4.8813-27.264-13.058-6.3491-6.3486-10.745-13.918-12.378-21.315-1.6821-7.6196-0.2505-14.174 4.0308-18.456 3.0815-3.082 7.4067-4.7109 12.507-4.7109 8.8955 0 19.087 4.8813 27.264 13.058 13.266 13.266 17.011 31.107 8.3472 39.771-3.0815 3.0815-7.4063 4.7104-12.506 4.7104h-0.0011z" fill="#FFE363"/>
							<path d="m656.12 593.39c8.1959 0 18.1 4.4696 26.282 12.651 12.745 12.745 16.482 29.672 8.347 37.807-2.9131 2.9131-6.9531 4.3038-11.525 4.3038-8.1959 0-18.1-4.4696-26.282-12.651-12.745-12.745-16.482-29.672-8.347-37.807 2.9132-2.9131 6.9532-4.3038 11.525-4.3038m0-2.7775c-5.4769 0-10.141 1.7695-13.489 5.1173-4.6286 4.6286-6.1929 11.638-4.4048 19.738 1.6893 7.6514 6.2179 15.464 12.752 21.997 8.4309 8.4309 18.99 13.464 28.246 13.464 5.4769 0 10.141-1.7695 13.489-5.1173 4.6287-4.6286 6.1929-11.638 4.4048-19.738-1.6893-7.6514-6.218-15.464-12.752-21.997-8.4309-8.431-18.99-13.464-28.246-13.464z" fill="#EC869A"/>
							<path d="m702.27 649.54c-5.1011 0-9.4258-1.6289-12.507-4.7104-4.2817-4.2817-5.7134-10.836-4.0308-18.456 1.6328-7.3965 6.0283-14.966 12.377-21.315 8.1763-8.1763 18.368-13.058 27.264-13.058 5.1006 0 9.4258 1.6289 12.507 4.7109 4.2813 4.2813 5.7129 10.836 4.0308 18.456-1.6333 7.3965-6.0288 14.966-12.378 21.315-8.1758 8.1763-18.368 13.058-27.262 13.058h-0.0015z" fill="#FFE363"/>
							<path d="m725.38 593.39c4.5712 0 8.6125 1.3911 11.525 4.3038 8.1351 8.1351 4.3981 25.062-8.347 37.807-8.1819 8.1819-18.085 12.651-26.282 12.651-4.5712 0-8.6125-1.3911-11.525-4.3038-8.1351-8.1351-4.3981-25.062 8.347-37.807 8.182-8.1819 18.085-12.651 26.282-12.651m0-2.7775c-9.2556 0-19.815 5.0334-28.246 13.464-6.5338 6.5338-11.062 14.346-12.752 21.997-1.7881 8.0994-0.2239 15.109 4.4048 19.738 3.3478 3.3478 8.0123 5.1173 13.489 5.1173 9.2557 0 19.815-5.0334 28.246-13.464 6.5339-6.5338 11.062-14.346 12.752-21.997 1.7881-8.0993 0.2238-15.109-4.4048-19.738-3.3478-3.3477-8.0123-5.1172-13.489-5.1172z" fill="#EC869A"/>
					<path d="m690.75 667.92c-6.4302 0-12.475-2.5039-17.022-7.0508-4.5469-4.5464-7.0508-10.591-7.0508-17.021s2.5039-12.475 7.0508-17.022c4.5464-4.5464 10.591-7.0503 17.022-7.0503 6.4297 0 12.475 2.5039 17.021 7.0503 4.5469 4.5464 7.0508 10.592 7.0508 17.022s-2.5039 12.475-7.0508 17.021c-4.5464 4.5469-10.591 7.0508-17.021 7.0508z" fill="#FFE363"/>
					<path d="m690.75 621.16c5.8051 0 11.61 2.2145 16.039 6.6437 8.8582 8.8583 8.8582 23.22 0 32.079-4.4291 4.4291-10.234 6.6437-16.039 6.6437s-11.61-2.2146-16.039-6.6437c-8.8582-8.8582-8.8582-23.22 0-32.079 4.4292-4.4292 10.234-6.6437 16.039-6.6437m0-2.7775c-6.8007 0-13.194 2.6484-18.003 7.4572-9.927 9.9271-9.927 26.08 0 36.006 4.8089 4.8088 11.203 7.4572 18.003 7.4572s13.194-2.6484 18.003-7.4572c9.927-9.927 9.927-26.08 0-36.006-4.8088-4.8089-11.202-7.4572-18.003-7.4572z" fill="#EC869A"/>
							<path d="m709.34 656.51c-10.688 0-19.384-5.6787-19.384-12.659s8.6958-12.659 19.384-12.659 19.384 5.6787 19.384 12.659-8.6959 12.659-19.384 12.659z" fill="#FFE363"/>
							<path d="m709.34 631.98c10.269 0 18.593 5.3135 18.593 11.868 0 6.5546-8.3245 11.868-18.593 11.868s-18.593-5.3135-18.593-11.868c-1e-4 -6.5547 8.3245-11.868 18.593-11.868m0-1.5824c-11.314 0-20.176 5.9082-20.176 13.451s8.8622 13.45 20.176 13.45c11.314 0 20.176-5.9081 20.176-13.45s-8.8623-13.451-20.176-13.451z" fill="#EC869A"/>
							<path d="m690.75 681.82c-6.9805 0-12.659-8.6958-12.659-19.384s5.6787-19.384 12.659-19.384c6.98 0 12.659 8.6958 12.659 19.384s-5.6787 19.384-12.659 19.384z" fill="#FFE363"/>
							<path d="m690.75 643.85c6.5546 0 11.868 8.3245 11.868 18.593s-5.3135 18.593-11.868 18.593c-6.5546 0-11.868-8.3246-11.868-18.593s5.3136-18.593 11.868-18.593m0-1.5824c-7.5424 0-13.45 8.8622-13.45 20.176s5.9081 20.176 13.45 20.176 13.451-8.8622 13.451-20.176-5.9082-20.176-13.451-20.176z" fill="#EC869A"/>
							<path d="m672.16 656.51c-10.688 0-19.384-5.6787-19.384-12.659s8.6958-12.659 19.384-12.659c10.689 0 19.385 5.6787 19.385 12.659s-8.6958 12.659-19.385 12.659z" fill="#FFE363"/>
							<path d="m672.16 631.98c10.269 0 18.593 5.3135 18.593 11.868 0 6.5546-8.3245 11.868-18.593 11.868s-18.593-5.3135-18.593-11.868c-1e-4 -6.5547 8.3245-11.868 18.593-11.868m0-1.5824c-11.314 0-20.176 5.9082-20.176 13.451s8.8622 13.45 20.176 13.45c11.314 0 20.176-5.9081 20.176-13.45s-8.8623-13.451-20.176-13.451z" fill="#EC869A"/>
							<path d="m690.75 644.64c-6.9805 0-12.659-8.6958-12.659-19.384 0-10.689 5.6787-19.385 12.659-19.385 6.98 0 12.659 8.6958 12.659 19.385 0 10.688-5.6787 19.384-12.659 19.384z" fill="#FFE363"/>
							<path d="m690.75 606.66c6.5546 0 11.868 8.3245 11.868 18.593s-5.3135 18.593-11.868 18.593c-6.5546 0-11.868-8.3246-11.868-18.593s5.3136-18.593 11.868-18.593m0-1.5824c-7.5424 0-13.45 8.8622-13.45 20.176s5.9081 20.176 13.45 20.176 13.451-8.8622 13.451-20.176c0-11.314-5.9082-20.176-13.451-20.176z" fill="#EC869A"/>
					<path d="m690.75 657.56c-7.562 0-13.714-6.1519-13.714-13.714s6.1523-13.714 13.714-13.714 13.714 6.1523 13.714 13.714-6.1519 13.714-13.714 13.714z" fill="#FFE363"/>
					<path d="m690.75 630.92c7.1372 0 12.923 5.7858 12.923 12.923 0 7.1372-5.7859 12.923-12.923 12.923s-12.923-5.7858-12.923-12.923c0-7.1373 5.7859-12.923 12.923-12.923m0-1.5824c-7.9984 0-14.506 6.5071-14.506 14.506s6.5071 14.505 14.506 14.505 14.506-6.5071 14.506-14.505-6.5071-14.506-14.506-14.506z" fill="#EC869A"/>
							<path d="m864.93 731.84c-16.313 0-29.584-20.322-29.584-45.301s13.272-45.301 29.584-45.301 29.585 20.322 29.585 45.301-13.272 45.301-29.585 45.301z" fill="#FFE363"/>
							<path d="m864.93 643.09c15.318 0 27.735 19.454 27.735 43.452s-12.418 43.452-27.735 43.452-27.735-19.454-27.735-43.452 12.418-43.452 27.735-43.452m0-3.698c-8.7153 0-16.787 5.1265-22.729 14.435-5.6132 8.7939-8.7044 20.412-8.7044 32.715s3.0912 23.921 8.7044 32.715c5.9417 9.3087 14.014 14.435 22.729 14.435s16.787-5.1265 22.729-14.435c5.6131-8.7939 8.7043-20.412 8.7043-32.715s-3.0912-23.921-8.7043-32.715c-5.9418-9.3087-14.014-14.435-22.729-14.435z" fill="#EC869A"/>
							<path d="m821.48 672.67c-24.979 0-45.301-13.272-45.301-29.584s20.322-29.584 45.301-29.584 45.301 13.272 45.301 29.584-20.322 29.584-45.301 29.584z" fill="#FFE363"/>
							<path d="m821.48 615.35c23.998 0 43.452 12.418 43.452 27.735s-19.454 27.735-43.452 27.735-43.452-12.418-43.452-27.735 19.454-27.735 43.452-27.735m0-3.6981c-12.303 0-23.921 3.0912-32.715 8.7043-9.3087 5.9418-14.435 14.014-14.435 22.729s5.1265 16.787 14.435 22.729c8.7939 5.6132 20.412 8.7044 32.715 8.7044s23.921-3.0912 32.715-8.7044c9.3087-5.9417 14.435-14.014 14.435-22.729s-5.1265-16.787-14.435-22.729c-8.7938-5.613-20.412-8.7043-32.715-8.7043z" fill="#EC869A"/>
							<path d="m864.93 644.94c-16.313 0-29.584-20.322-29.584-45.301s13.272-45.301 29.584-45.301 29.585 20.322 29.585 45.301-13.272 45.301-29.585 45.301z" fill="#FFE363"/>
							<path d="m864.93 556.19c15.318 0 27.735 19.454 27.735 43.452s-12.418 43.452-27.735 43.452-27.735-19.454-27.735-43.452 12.418-43.452 27.735-43.452m0-3.6981c-8.7153 0-16.787 5.1265-22.729 14.435-5.6132 8.7939-8.7044 20.412-8.7044 32.715s3.0912 23.921 8.7044 32.715c5.9417 9.3087 14.014 14.435 22.729 14.435s16.787-5.1265 22.729-14.435c5.6131-8.7939 8.7043-20.412 8.7043-32.715s-3.0912-23.921-8.7043-32.715c-5.9418-9.3086-14.014-14.435-22.729-14.435z" fill="#EC869A"/>
							<path d="m908.38 672.67c-24.979 0-45.301-13.272-45.301-29.584s20.322-29.584 45.301-29.584 45.301 13.272 45.301 29.584-20.322 29.584-45.301 29.584z" fill="#FFE363"/>
							<path d="m908.38 615.35c23.998 0 43.452 12.418 43.452 27.735s-19.454 27.735-43.452 27.735c-23.998 0-43.452-12.418-43.452-27.735s19.454-27.735 43.452-27.735m0-3.6981c-12.303 0-23.921 3.0912-32.715 8.7043-9.3087 5.9418-14.435 14.014-14.435 22.729s5.1265 16.787 14.435 22.729c8.7939 5.6132 20.412 8.7044 32.715 8.7044s23.921-3.0912 32.715-8.7044c9.3087-5.9417 14.435-14.014 14.435-22.729s-5.1265-16.787-14.435-22.729c-8.7939-5.613-20.412-8.7043-32.715-8.7043z" fill="#EC869A"/>
					<path d="m864.93 675.14c-17.672 0-32.05-14.377-32.05-32.05s14.377-32.05 32.05-32.05 32.05 14.377 32.05 32.05-14.378 32.05-32.05 32.05z" fill="#FFE363"/>
					<path d="m864.93 612.89c16.679 0 30.201 13.521 30.201 30.201 0 16.679-13.521 30.201-30.201 30.201-16.679 0-30.201-13.521-30.201-30.201-1e-4 -16.679 13.521-30.201 30.201-30.201m0-3.6981c-18.692 0-33.899 15.207-33.899 33.899s15.207 33.899 33.899 33.899 33.899-15.207 33.899-33.899-15.207-33.899-33.899-33.899z" fill="#EC869A"/>
							<path d="m899.56 694.94c-8.8955 0-19.088-4.8813-27.264-13.058-13.266-13.266-17.011-31.106-8.3472-39.77 3.0815-3.0815 7.4067-4.7104 12.507-4.7104 8.8955 0 19.087 4.8813 27.264 13.058 13.266 13.266 17.011 31.106 8.3472 39.77-3.0815 3.0815-7.4063 4.7104-12.506 4.7104h-1e-3z" fill="#FFE363"/>
							<path d="m876.45 638.79c8.1959 0 18.1 4.4696 26.282 12.651 12.745 12.745 16.482 29.672 8.347 37.807-2.9131 2.9131-6.9531 4.3038-11.525 4.3038-8.1959 0-18.1-4.4696-26.282-12.651-12.745-12.745-16.482-29.672-8.347-37.807 2.9131-2.9132 6.9531-4.3038 11.525-4.3038m0-2.7776c-5.4769 0-10.141 1.7695-13.489 5.1173-4.6287 4.6286-6.1929 11.638-4.4048 19.738 1.6893 7.6514 6.218 15.464 12.752 21.997 8.4308 8.4309 18.99 13.464 28.246 13.464 5.4769 0 10.141-1.7695 13.489-5.1173 4.6286-4.6286 6.1929-11.638 4.4048-19.738-1.6893-7.6514-6.2179-15.464-12.752-21.997-8.431-8.4308-18.99-13.464-28.246-13.464z" fill="#EC869A"/>
							<path d="m830.3 694.94c-5.1006 0-9.4258-1.6289-12.507-4.7104-8.6636-8.6641-4.9189-26.505 8.3472-39.77 8.1763-8.1763 18.368-13.058 27.264-13.058 5.1006 0 9.4253 1.6289 12.507 4.7104 4.2817 4.2817 5.7134 10.836 4.0308 18.456-1.6328 7.396-6.0283 14.966-12.377 21.314-8.1758 8.1763-18.368 13.058-27.262 13.058-0.0011-1e-4 -6e-4 -1e-4 -0.0021-1e-4z" fill="#FFE363"/>
							<path d="m853.4 638.79c4.5712 0 8.6126 1.3911 11.525 4.3038 8.1351 8.1351 4.3981 25.062-8.347 37.807-8.1819 8.1819-18.085 12.651-26.282 12.651-4.5712 0-8.6125-1.3911-11.525-4.3038-8.1351-8.1351-4.3981-25.062 8.347-37.807 8.1819-8.182 18.085-12.651 26.282-12.651m0-2.7776c-9.2556 0-19.815 5.0334-28.246 13.464-6.5339 6.5338-11.062 14.346-12.752 21.997-1.7881 8.0993-0.2238 15.109 4.4048 19.738 3.3478 3.3478 8.0123 5.1173 13.489 5.1173 9.2556 0 19.815-5.0334 28.246-13.464 6.5338-6.5338 11.062-14.346 12.752-21.997 1.7881-8.0994 0.2239-15.109-4.4048-19.738-3.3478-3.3478-8.0123-5.1174-13.489-5.1174z" fill="#EC869A"/>
							<path d="m853.4 648.78c-8.8955 0-19.088-4.8813-27.264-13.058-13.266-13.266-17.01-31.107-8.3472-39.77 3.0815-3.0815 7.4067-4.7104 12.507-4.7104 8.8955 0 19.087 4.8809 27.264 13.057 6.3491 6.3491 10.745 13.918 12.377 21.315 1.6826 7.6201 0.251 14.174-4.0308 18.456-3.0815 3.0815-7.4063 4.7104-12.506 4.7104h-4e-4z" fill="#FFE363"/>
							<path d="m830.3 592.63c8.1959 0 18.1 4.4696 26.282 12.651 12.745 12.745 16.482 29.672 8.347 37.807-2.9131 2.9131-6.9531 4.3038-11.525 4.3038-8.1958 0-18.1-4.4696-26.282-12.651-12.745-12.745-16.482-29.672-8.347-37.807 2.9131-2.9132 6.9531-4.3038 11.525-4.3038m0-2.7775c-5.4769 0-10.141 1.7695-13.489 5.1173-4.6286 4.6286-6.1929 11.638-4.4048 19.738 1.6893 7.6514 6.218 15.464 12.752 21.997 8.4308 8.4309 18.99 13.464 28.246 13.464 5.477 0 10.142-1.7695 13.489-5.1173 4.6287-4.6286 6.1929-11.638 4.4048-19.738-1.6893-7.6514-6.218-15.464-12.752-21.997-8.4309-8.4308-18.99-13.464-28.246-13.464z" fill="#EC869A"/>
							<path d="m876.45 648.78c-5.1006 0-9.4258-1.6289-12.507-4.7104-8.6636-8.6641-4.9189-26.505 8.3472-39.771 8.1763-8.1763 18.368-13.057 27.264-13.057 5.1006 0 9.4258 1.6289 12.507 4.7104 8.6631 8.6636 4.9189 26.505-8.3472 39.77-8.1758 8.1763-18.368 13.058-27.262 13.058h-2e-3z" fill="#FFE363"/>
							<path d="m899.56 592.63c4.5712 0 8.6126 1.3911 11.525 4.3038 8.1351 8.1351 4.3981 25.062-8.347 37.807-8.1819 8.1819-18.085 12.651-26.282 12.651-4.5712 0-8.6125-1.3911-11.525-4.3038-8.1351-8.1351-4.3981-25.062 8.347-37.807 8.1818-8.1819 18.085-12.651 26.282-12.651m0-2.7775c-9.2557 0-19.815 5.0334-28.246 13.464-6.5338 6.5338-11.062 14.346-12.752 21.997-1.7881 8.0993-0.2239 15.109 4.4048 19.738 3.3478 3.3478 8.0123 5.1173 13.489 5.1173 9.2557 0 19.815-5.0334 28.246-13.464 6.5338-6.5338 11.062-14.346 12.752-21.997 1.7881-8.0994 0.2238-15.109-4.4048-19.738-3.3478-3.3479-8.0122-5.1174-13.489-5.1174z" fill="#EC869A"/>
					<path d="m864.93 667.16c-6.4302 0-12.475-2.5039-17.022-7.0508-4.5469-4.5464-7.0508-10.591-7.0508-17.021s2.5039-12.475 7.0508-17.022c4.5464-4.5464 10.591-7.0503 17.022-7.0503 6.4297 0 12.475 2.5039 17.021 7.0503 4.5469 4.5464 7.0508 10.592 7.0508 17.022s-2.5039 12.475-7.0508 17.021c-4.5464 4.5469-10.591 7.0508-17.021 7.0508z" fill="#FFE363"/>
					<path d="m864.93 620.41c5.8051 0 11.61 2.2145 16.039 6.6437 8.8583 8.8582 8.8583 23.22 0 32.079-4.4291 4.4291-10.234 6.6437-16.039 6.6437s-11.61-2.2146-16.039-6.6437c-8.8582-8.8583-8.8582-23.22 0-32.079 4.4291-4.4291 10.234-6.6437 16.039-6.6437m0-2.7775c-6.8007 0-13.194 2.6484-18.003 7.4572-9.927 9.927-9.927 26.08 0 36.006 4.8089 4.8088 11.203 7.4572 18.003 7.4572s13.194-2.6483 18.003-7.4572 7.4572-11.203 7.4572-18.003-2.6484-13.194-7.4572-18.003-11.202-7.4572-18.003-7.4572z" fill="#EC869A"/>
							<path d="m883.52 655.75c-10.689 0-19.385-5.6787-19.385-12.659s8.6958-12.659 19.385-12.659c10.688 0 19.384 5.6787 19.384 12.659s-8.6958 12.659-19.384 12.659z" fill="#FFE363"/>
							<path d="m883.52 631.22c10.269 0 18.593 5.3135 18.593 11.868s-8.3246 11.868-18.593 11.868-18.593-5.3135-18.593-11.868c0-6.5545 8.3245-11.868 18.593-11.868m0-1.5824c-11.314 0-20.176 5.9081-20.176 13.45s8.8622 13.451 20.176 13.451 20.176-5.9082 20.176-13.451-8.8622-13.45-20.176-13.45z" fill="#EC869A"/>
							<path d="m864.93 681.07c-6.98 0-12.659-8.6958-12.659-19.385 0-10.688 5.6787-19.384 12.659-19.384 6.9805 0 12.659 8.6958 12.659 19.384 0 10.689-5.6787 19.385-12.659 19.385z" fill="#FFE363"/>
							<path d="m864.93 643.09c6.5546 0 11.868 8.3246 11.868 18.593s-5.3135 18.593-11.868 18.593-11.868-8.3245-11.868-18.593 5.3135-18.593 11.868-18.593m0-1.5824c-7.5424 0-13.451 8.8622-13.451 20.176 0 11.314 5.9082 20.176 13.451 20.176s13.45-8.8622 13.45-20.176c0-11.314-5.9082-20.176-13.45-20.176z" fill="#EC869A"/>
							<path d="m846.33 655.75c-10.688 0-19.384-5.6787-19.384-12.659s8.6958-12.659 19.384-12.659 19.384 5.6787 19.384 12.659-8.6959 12.659-19.384 12.659z" fill="#FFE363"/>
							<path d="m846.33 631.22c10.269 0 18.593 5.3135 18.593 11.868s-8.3246 11.868-18.593 11.868-18.593-5.3135-18.593-11.868c0-6.5545 8.3246-11.868 18.593-11.868m0-1.5824c-11.314 0-20.176 5.9081-20.176 13.45s8.8622 13.451 20.176 13.451 20.176-5.9082 20.176-13.451-8.8622-13.45-20.176-13.45z" fill="#EC869A"/>
							<path d="m864.93 643.88c-6.98 0-12.659-8.6958-12.659-19.384 0-10.689 5.6787-19.385 12.659-19.385 6.9805 0 12.659 8.6958 12.659 19.385 0 10.688-5.6787 19.384-12.659 19.384z" fill="#FFE363"/>
							<path d="m864.93 605.9c6.5546 0 11.868 8.3246 11.868 18.593s-5.3135 18.593-11.868 18.593-11.868-8.3245-11.868-18.593 5.3135-18.593 11.868-18.593m0-1.5824c-7.5424 0-13.451 8.8622-13.451 20.176 0 11.314 5.9082 20.176 13.451 20.176s13.45-8.8622 13.45-20.176c0-11.314-5.9082-20.176-13.45-20.176z" fill="#EC869A"/>
					<path d="m864.93 656.8c-7.562 0-13.714-6.1519-13.714-13.714s6.1519-13.714 13.714-13.714 13.714 6.1523 13.714 13.714-6.1524 13.714-13.714 13.714z" fill="#FFE363"/>
					<path d="m864.93 630.17c7.1372 0 12.923 5.7859 12.923 12.923s-5.7859 12.923-12.923 12.923-12.923-5.7859-12.923-12.923 5.7859-12.923 12.923-12.923m0-1.5823c-7.9984 0-14.506 6.5071-14.506 14.506s6.5071 14.506 14.506 14.506 14.506-6.5071 14.506-14.506-6.5072-14.506-14.506-14.506z" fill="#EC869A"/>
				<path d="m624.11 738.45c-8.6748 0-20.882-21.071-28.458-41.886-2.3203-6.374-4.2515-12.77-5.6787-18.784-2.4502 5.6738-5.4624 11.638-8.854 17.513-12.373 21.43-26.458 36.397-34.251 36.397-1.0181 0-1.9438-0.2368-2.7529-0.7036-3.6772-2.123-4.1812-8.501-1.4561-18.445 2.499-9.1201 7.4233-20.289 13.866-31.448 3.3911-5.874 7.0493-11.464 10.739-16.424-5.9219 1.7705-12.427 3.2964-19.107 4.4741-9.4844 1.6724-18.776 2.5562-26.872 2.5562-8.5352 0-23.036-1.0337-24.257-7.959-1.6182-9.1802 22.016-18.3 46.198-22.564 6.6792-1.1777 13.314-1.9688 19.485-2.3301-5.1626-3.3979-10.513-7.3999-15.71-11.761-9.8706-8.2822-18.318-17.093-23.786-24.809-5.9614-8.4126-7.6694-14.579-4.9399-17.831 1.1563-1.3779 2.958-2.0767 5.355-2.0767 8.5298 0 25.257 9.2275 41.625 22.962 5.1963 4.3599 10.067 8.9336 14.31 13.428-0.7153-6.1392-1.0884-12.81-1.0884-19.594 0-24.555 4.8774-49.414 14.199-49.414 9.3223 0 14.2 24.858 14.2 49.414 0 9.5854-0.7505 18.908-2.1377 26.818 6.1567-5.1567 13.854-10.467 22.156-15.26 16.675-9.6274 32.833-15.608 42.168-15.608 3.9009 0 6.5 1.0762 7.7251 3.1982 2.1235 3.6777-0.6299 9.4531-7.9614 16.703-6.7246 6.6489-16.573 13.858-27.732 20.301-5.8735 3.3911-11.838 6.4038-17.513 8.854 6.0137 1.4272 12.41 3.3584 18.785 5.6787 23.074 8.3984 44.765 21.484 41.577 30.244-1.1851 3.2563-5.395 4.9077-12.51 4.9077h-0.0015c-9.7183 0-24.215-3.165-38.778-8.4658-6.374-2.3198-12.516-4.9521-18.04-7.7241 2.7725 5.5259 5.4048 11.667 7.7241 18.04 4.4072 12.108 7.3174 23.961 8.1948 33.377 0.957 10.266-0.6465 16.46-4.6367 17.912-0.5642 0.2053-1.1648 0.3093-1.7859 0.3093z" fill="#FCE9DC"/>
				<path d="m592.68 551.46c6.901 0 12.495 21.36 12.495 47.71 0 12.046-1.1718 23.041-3.1005 31.437 6.3071-5.8685 15.243-12.381 25.675-18.404 16.74-9.6647 32.659-15.38 41.316-15.38 3.1439 0 5.3301 0.7539 6.2494 2.3461 3.4505 5.9765-12.251 21.502-35.07 34.676-7.8749 4.5466-15.567 8.218-22.409 10.832 7.1913 1.387 15.404 3.6667 23.949 6.7768 24.76 9.012 42.919 21.575 40.559 28.06-0.9307 2.5569-4.9112 3.787-10.911 3.787-9.2169 0-23.198-2.9041-38.195-8.3628-8.5447-3.11-16.302-6.6429-22.702-10.203 3.56 6.4004 7.0929 14.158 10.203 22.702 9.012 24.76 11.061 46.746 4.5758 49.106-0.3807 0.1386-0.7817 0.2064-1.2025 0.2064-6.7446 0-18.374-17.459-26.857-40.765-3.11-8.5447-5.3898-16.758-6.7767-23.949-2.6146 6.8412-6.286 14.534-10.832 22.409-11.952 20.702-25.839 35.546-32.776 35.546-0.7093 0-1.3463-0.1553-1.9007-0.4754-5.9765-3.4506-0.1412-24.746 13.033-47.566 4.5466-7.8749 9.3729-14.901 13.99-20.586-6.9213 2.3946-15.174 4.5267-24.129 6.1057-9.704 1.7111-18.856 2.5305-26.576 2.5305-12.923 0-21.829-2.2967-22.579-6.5514-1.1984-6.7961 18.866-16.015 44.815-20.59 8.955-1.579 17.439-2.398 24.762-2.5151-6.2832-3.7628-13.221-8.7142-20.187-14.559-20.185-16.937-32.952-34.953-28.516-40.239 0.8347-0.9948 2.2178-1.468 4.0499-1.4677 7.9042 9e-4 24.143 8.813 40.53 22.563 6.9658 5.845 13.047 11.818 17.844 17.352-1.1563-7.2319-1.823-15.73-1.823-24.823 0-26.35 5.5944-47.71 12.495-47.71m0-3.4079c-5.1797 0-9.2615 5.5576-12.132 16.518-2.4318 9.2849-3.771 21.572-3.771 34.599 0 5.0914 0.2085 10.123 0.6126 14.919-3.4143-3.3925-7.1346-6.7864-11.035-10.059-16.911-14.19-33.679-23.359-42.72-23.36-3.6428-5e-4 -5.6328 1.4599-6.6609 2.6851-3.3294 3.9678-1.6959 10.667 4.8553 19.912 5.5496 7.8311 14.102 16.755 24.081 25.129 3.9001 3.2726 7.8884 6.347 11.822 9.1204-4.7934 0.4349-9.7845 1.1032-14.798 1.9873-12.829 2.2621-24.697 5.7147-33.419 9.7219-10.296 4.7303-15.06 9.7153-14.161 14.816 1.3652 7.7422 14.857 9.3674 25.935 9.3674 8.1925 0 17.587-0.8929 27.167-2.5823 5.0141-0.8842 9.9327-1.9631 14.586-3.1939-2.748 3.9515-5.4445 8.2047-7.9901 12.614-6.5134 11.282-11.497 22.592-14.034 31.849-2.9943 10.928-2.238 17.782 2.2477 20.371 1.0711 0.6184 2.2839 0.9319 3.6046 0.9319 9.8235 0 25.022-18.708 35.727-37.25 2.5456-4.4091 4.8807-8.8707 6.9288-13.226 1.2606 4.6451 2.7856 9.4444 4.5269 14.229 7.7916 21.407 20.108 43.007 30.059 43.007 0.8205 0 1.6172-0.1386 2.3681-0.4119 4.8672-1.7715 6.8022-8.3899 5.7509-19.672-0.8905-9.5566-3.8347-21.561-8.2901-33.802-1.7413-4.7842-3.6581-9.4409-5.6782-13.81 4.3687 2.0201 9.0252 3.9369 13.81 5.6783 14.961 5.4453 29.307 8.5683 39.361 8.5683 7.9087 0 12.657-2.0286 14.113-6.0293 1.7716-4.8672-2.0547-10.604-11.373-17.05-7.8932-5.4608-18.982-10.922-31.223-15.377-4.7842-1.7413-9.5836-3.2662-14.229-4.5269 4.3556-2.0481 8.8171-4.3832 13.226-6.9288 11.282-6.5134 21.253-13.817 28.078-20.565 8.0569-7.9664 10.829-14.28 8.2392-18.766-1.5516-2.6874-4.6472-4.05-9.2007-4.05-9.6169 0-26.101 6.0681-43.02 15.836-6.8962 3.9816-13.385 8.3214-18.941 12.642 0.9641-6.9716 1.4779-14.761 1.4779-22.724 0-13.027-1.3392-25.314-3.771-34.599-2.8707-10.961-6.9526-16.518-12.132-16.518z" fill="#51EEFF"/>
			<circle cx="590.6" cy="644.1" r="24.991" fill="#FCF057"/>
				<path d="m804.53 728.73c-8.6738 0-20.882-21.071-28.458-41.886-2.3198-6.374-4.251-12.771-5.6787-18.785-2.4502 5.6753-5.4624 11.639-8.854 17.513-12.373 21.43-26.458 36.398-34.251 36.398-1.0181 0-1.9438-0.2368-2.7529-0.7036-8.0728-4.6611 0.1323-28.627 12.41-49.893 3.3916-5.875 7.0503-11.466 10.739-16.424-5.9209 1.77-12.426 3.2959-19.107 4.4741-9.4844 1.6724-18.776 2.5562-26.871 2.5562-8.5352 0-23.036-1.0342-24.257-7.9595-0.7373-4.1816 3.8247-8.6675 13.194-12.972 8.5933-3.9482 20.314-7.355 33.003-9.5923 6.6816-1.1782 13.316-1.9692 19.485-2.3306-5.1641-3.3989-10.515-7.4014-15.709-11.761-9.8706-8.2822-18.318-17.093-23.786-24.809-5.9614-8.4121-7.6694-14.578-4.9399-17.831 1.1563-1.3779 2.958-2.0767 5.3555-2.0767 8.5298 0 25.257 9.2275 41.624 22.961 5.1968 4.3608 10.068 8.9351 14.31 13.429-0.7153-6.1396-1.0889-12.811-1.0889-19.594 0-24.556 4.8774-49.414 14.2-49.414 9.3218 0 14.199 24.858 14.199 49.414 0 9.5874-0.7505 18.909-2.1377 26.818 6.1567-5.1567 13.854-10.467 22.156-15.261 16.675-9.6274 32.834-15.608 42.168-15.608 3.9004 0 6.4995 1.0762 7.7246 3.1982 2.1235 3.6777-0.6294 9.4531-7.9614 16.703-6.7241 6.6489-16.573 13.858-27.732 20.301-5.875 3.3916-11.839 6.4038-17.513 8.854 6.0132 1.4272 12.41 3.3584 18.784 5.6787 12.108 4.4067 23.059 9.7969 30.836 15.177 8.479 5.8657 12.193 11.076 10.741 15.066-1.1851 3.2563-5.395 4.9082-12.511 4.9082h-1e-3c-9.7183-5e-4 -24.214-3.165-38.778-8.4658-6.373-2.3193-12.514-4.9517-18.04-7.7241 2.7715 5.5229 5.4043 11.665 7.7246 18.04 8.3984 23.075 12.317 48.102 3.5576 51.29-0.5643 0.2052-1.1649 0.3092-1.7859 0.3092z" fill="#FCE9DC"/>
				<path d="m773.1 541.74c6.901 0 12.495 21.36 12.495 47.71 0 12.046-1.1718 23.041-3.1005 31.437 6.3071-5.8686 15.243-12.381 25.675-18.404 16.74-9.6647 32.659-15.38 41.316-15.38 3.1439 0 5.3301 0.7539 6.2494 2.3461 3.4505 5.9764-12.251 21.502-35.07 34.676-7.8749 4.5465-15.567 8.2179-22.409 10.832 7.1913 1.3869 15.404 3.6667 23.949 6.7767 24.76 9.0121 42.919 21.575 40.559 28.06-0.9307 2.5569-4.9113 3.787-10.911 3.787-9.2169 0-23.198-2.9042-38.195-8.3629-8.5447-3.11-16.302-6.6429-22.702-10.203 3.56 6.4003 7.0929 14.158 10.203 22.702 9.012 24.76 11.061 46.746 4.5758 49.106-0.3807 0.1386-0.7817 0.2064-1.2025 0.2064-6.7446 0-18.374-17.459-26.857-40.765-3.11-8.5447-5.3898-16.758-6.7767-23.949-2.6146 6.8412-6.286 14.534-10.832 22.409-11.952 20.702-25.839 35.546-32.776 35.546-0.7094 0-1.3463-0.1553-1.9008-0.4754-5.9765-3.4505-0.1412-24.746 13.033-47.566 4.5466-7.8748 9.3729-14.901 13.99-20.586-6.9213 2.3945-15.174 4.5267-24.129 6.1057-9.7039 1.7111-18.856 2.5305-26.576 2.5305-12.923 0-21.829-2.2966-22.579-6.5513-1.1984-6.7961 18.866-16.015 44.815-20.59 8.9549-1.579 17.439-2.398 24.762-2.5151-6.2832-3.7628-13.221-8.7143-20.187-14.559-20.185-16.937-32.952-34.953-28.516-40.239 0.8347-0.9948 2.2178-1.468 4.0499-1.4678 7.9042 9e-4 24.143 8.813 40.53 22.563 6.9658 5.8449 13.047 11.818 17.844 17.352-1.1563-7.232-1.823-15.73-1.823-24.823 1e-4 -26.349 5.5945-47.71 12.496-47.71m0-3.4078c-5.1797 0-9.2615 5.5576-12.132 16.518-2.4318 9.2849-3.771 21.572-3.771 34.599 0 5.0913 0.2085 10.123 0.6126 14.919-3.4147-3.3929-7.1344-6.7863-11.035-10.059-16.911-14.19-33.679-23.359-42.72-23.36-3.6429-4e-4 -5.6329 1.46-6.6609 2.6851-3.3294 3.9678-1.6959 10.667 4.8553 19.912 5.5496 7.8311 14.102 16.755 24.081 25.129 3.9002 3.2726 7.8884 6.347 11.822 9.1203-4.7935 0.4349-9.7844 1.1032-14.798 1.9873-12.829 2.2621-24.697 5.7147-33.419 9.7219-10.296 4.7304-15.06 9.7153-14.161 14.816 1.3652 7.7422 14.857 9.3674 25.935 9.3674 8.1924 0 17.587-0.8929 27.167-2.5822 5.014-0.8841 9.9327-1.9631 14.586-3.1939-2.748 3.9515-5.4443 8.2045-7.99 12.614-6.5134 11.282-11.497 22.592-14.034 31.849-2.9943 10.928-2.238 17.782 2.2477 20.371 1.0711 0.6184 2.2839 0.9319 3.6046 0.9319 9.8235 0 25.022-18.708 35.727-37.25 2.5456-4.4092 4.8807-8.8707 6.9288-13.226 1.2606 4.6451 2.7856 9.4444 4.5269 14.229 7.7916 21.407 20.108 43.007 30.059 43.007 0.8205 0 1.6172-0.1386 2.3681-0.4119 4.8672-1.7715 6.8022-8.39 5.7509-19.672-0.8905-9.5566-3.8347-21.561-8.2901-33.802-1.7413-4.7842-3.6581-9.441-5.6782-13.81 4.3687 2.0201 9.0253 3.9369 13.81 5.6783 14.961 5.4453 29.307 8.5684 39.361 8.5684 7.9088 0 12.657-2.0286 14.113-6.0294 1.7716-4.8672-2.0547-10.604-11.373-17.05-7.8932-5.4607-18.982-10.922-31.223-15.377-4.7843-1.7413-9.5836-3.2662-14.229-4.5269 4.3556-2.0481 8.8171-4.3832 13.226-6.9288 11.282-6.5134 21.253-13.817 28.078-20.566 8.0569-7.9664 10.829-14.28 8.2392-18.766-1.5516-2.6874-4.6472-4.05-9.2007-4.05-9.6169 0-26.101 6.0681-43.02 15.836-6.8962 3.9816-13.385 8.3214-18.941 12.642 0.964-6.9716 1.4778-14.761 1.4778-22.724 0-13.027-1.3392-25.314-3.771-34.599-2.8709-10.961-6.9528-16.518-12.132-16.518z" fill="#51EEFF"/>
			<circle cx="771.02" cy="634.38" r="24.991" fill="#FCF057"/>
				<path d="m991.02 738.45c-8.6748 0-20.882-21.071-28.458-41.886-2.3203-6.374-4.2515-12.77-5.6787-18.784-2.4502 5.6738-5.4624 11.638-8.854 17.513-12.373 21.43-26.458 36.397-34.251 36.397-1.0181 0-1.9438-0.2368-2.7529-0.7036-3.6772-2.123-4.1812-8.501-1.4561-18.445 2.499-9.1201 7.4233-20.289 13.866-31.448 3.3911-5.874 7.0498-11.465 10.739-16.424-5.9219 1.7705-12.427 3.2964-19.107 4.4741-9.4844 1.6724-18.776 2.5562-26.872 2.5562-8.5352 0-23.036-1.0337-24.257-7.959-1.6182-9.1802 22.016-18.3 46.198-22.564 6.6792-1.1777 13.314-1.9688 19.485-2.3301-5.1626-3.3979-10.513-7.3999-15.71-11.761-9.8706-8.2822-18.318-17.093-23.786-24.809-5.9614-8.4126-7.6694-14.579-4.9399-17.831 1.1563-1.3779 2.958-2.0767 5.355-2.0767 8.5298 0 25.257 9.2275 41.625 22.962 5.1963 4.3599 10.067 8.9336 14.31 13.428-0.7153-6.1392-1.0884-12.81-1.0884-19.594 0-24.555 4.8774-49.414 14.199-49.414 9.3223 0 14.2 24.858 14.2 49.414 0 9.5854-0.7505 18.908-2.1377 26.818 6.1567-5.1567 13.854-10.467 22.156-15.26 16.675-9.6274 32.833-15.608 42.168-15.608 3.9009 0 6.5 1.0762 7.7251 3.1982 2.1235 3.6777-0.6299 9.4531-7.9614 16.703-6.7241 6.6489-16.573 13.858-27.732 20.301-5.875 3.3916-11.839 6.4038-17.513 8.854 6.0132 1.4272 12.41 3.3584 18.784 5.6787 23.074 8.3984 44.765 21.484 41.577 30.244-1.1851 3.2563-5.395 4.9077-12.51 4.9077h-0.0015c-9.7183 0-24.215-3.165-38.778-8.4658-6.374-2.3198-12.515-4.9521-18.04-7.7241 2.772 5.5244 5.4043 11.666 7.7241 18.04 4.4072 12.108 7.3174 23.961 8.1948 33.377 0.957 10.266-0.6465 16.46-4.6367 17.912-0.5642 0.2053-1.1648 0.3093-1.7859 0.3093z" fill="#FCE9DC"/>
				<path d="m959.59 551.46c6.901 0 12.495 21.36 12.495 47.71 0 12.046-1.1718 23.041-3.1005 31.437 6.3071-5.8685 15.243-12.381 25.675-18.404 16.74-9.6647 32.659-15.38 41.316-15.38 3.1439 0 5.3301 0.7539 6.2494 2.3461 3.4504 5.9765-12.251 21.502-35.07 34.676-7.8749 4.5466-15.567 8.218-22.409 10.832 7.1913 1.387 15.404 3.6667 23.949 6.7768 24.76 9.012 42.919 21.575 40.559 28.06-0.9307 2.5569-4.9113 3.787-10.911 3.787-9.2169 0-23.198-2.9041-38.195-8.3628-8.5447-3.11-16.302-6.6429-22.702-10.203 3.5599 6.4004 7.0929 14.158 10.203 22.702 9.0121 24.76 11.061 46.746 4.5758 49.106-0.3807 0.1386-0.7817 0.2064-1.2025 0.2064-6.7445 0-18.374-17.459-26.857-40.765-3.1101-8.5447-5.3899-16.758-6.7767-23.949-2.6146 6.8412-6.286 14.534-10.832 22.409-11.952 20.702-25.839 35.546-32.776 35.546-0.7094 0-1.3463-0.1553-1.9008-0.4754-5.9764-3.4506-0.1412-24.746 13.034-47.566 4.5465-7.8749 9.3729-14.901 13.99-20.586-6.9213 2.3946-15.174 4.5267-24.129 6.1057-9.704 1.7111-18.856 2.5305-26.576 2.5305-12.923 0-21.829-2.2967-22.579-6.5514-1.1984-6.7961 18.866-16.015 44.815-20.59 8.9549-1.579 17.439-2.398 24.762-2.5151-6.2831-3.7628-13.221-8.7142-20.187-14.559-20.185-16.937-32.952-34.953-28.516-40.239 0.8347-0.9948 2.2178-1.468 4.0499-1.4677 7.9041 9e-4 24.143 8.813 40.53 22.563 6.9657 5.845 13.047 11.818 17.844 17.352-1.1563-7.2319-1.823-15.73-1.823-24.823-2e-4 -26.35 5.5942-47.71 12.495-47.71m0-3.4079c-5.1797 0-9.2615 5.5576-12.132 16.518-2.4318 9.2849-3.771 21.572-3.771 34.599 0 5.0914 0.2085 10.123 0.6125 14.919-3.4142-3.3925-7.1345-6.7863-11.035-10.059-16.911-14.19-33.679-23.359-42.72-23.36-3.6428-5e-4 -5.6328 1.4599-6.6609 2.6851-3.3294 3.9678-1.6959 10.667 4.8553 19.912 5.5496 7.8311 14.102 16.755 24.081 25.129 3.9001 3.2725 7.8884 6.347 11.822 9.1204-4.7934 0.4349-9.7846 1.1032-14.799 1.9873-12.829 2.2621-24.697 5.7147-33.419 9.7219-10.296 4.7303-15.06 9.7152-14.161 14.816 1.3652 7.7422 14.857 9.3674 25.935 9.3674 8.1925 0 17.587-0.8929 27.167-2.5823 5.0141-0.8842 9.9327-1.9631 14.586-3.1939-2.7484 3.9519-5.4443 8.2044-7.9901 12.614-6.5134 11.282-11.497 22.592-14.034 31.849-2.9943 10.928-2.238 17.782 2.2477 20.371 1.0711 0.6185 2.2839 0.932 3.6046 0.932 9.8235 0 25.022-18.708 35.727-37.25 2.5455-4.4091 4.8806-8.8706 6.9287-13.226 1.2606 4.6451 2.7856 9.4444 4.527 14.229 7.7916 21.407 20.108 43.007 30.059 43.007 0.8206 0 1.6173-0.1386 2.3682-0.4119 4.8673-1.7714 6.8022-8.3899 5.751-19.672-0.8905-9.5566-3.8347-21.561-8.2902-33.802-1.7413-4.7845-3.6578-9.4405-5.6781-13.81 4.3685 2.0201 9.025 3.9368 13.81 5.6783 14.961 5.4453 29.307 8.5683 39.361 8.5683 7.9087 0 12.657-2.0285 14.113-6.0292 1.7716-4.8673-2.0548-10.604-11.373-17.05-7.8933-5.4608-18.982-10.922-31.223-15.377-4.7842-1.7413-9.5835-3.2662-14.229-4.5269 4.3556-2.0481 8.8173-4.3832 13.226-6.9288 11.281-6.5134 21.253-13.817 28.078-20.565 8.057-7.9664 10.829-14.28 8.2393-18.766-1.5516-2.6875-4.6472-4.0501-9.2007-4.0501-9.6169 0-26.101 6.0681-43.02 15.836-6.8962 3.9815-13.385 8.3214-18.941 12.642 0.964-6.9716 1.4779-14.761 1.4779-22.724 0-13.027-1.3392-25.314-3.771-34.599-2.8707-10.961-6.9525-16.518-12.132-16.518z" fill="#51EEFF"/>
			<circle cx="957.51" cy="644.1" r="24.991" fill="#FCF057"/>
</svg>
